<svg width="1810" height="137" viewBox="0 0 1810 137" fill="none" xmlns="http://www.w3.org/2000/svg">
<rect x="1398" y="0.863281" width="180" height="24.1371" rx="10" fill="#F2B862"/>
<rect x="1630" width="180" height="24.1371" rx="10" fill="#F2B862"/>
<rect x="1166" width="180" height="24.1371" rx="10" fill="#F2B862"/>
<rect x="232" y="1.86328" width="180" height="24.1371" rx="10" fill="#F2B862"/>
<rect x="464" y="1" width="180" height="24.1371" rx="10" fill="#F2B862"/>
<rect y="1" width="180" height="24.1371" rx="10" fill="#F2B862"/>
<path d="M969.987 1.00488C969.987 1.00488 968.617 14.3314 960.323 22.637C953.991 28.9686 947.33 29.4647 938.61 30.7645C933.529 31.5249 922.592 32.7977 919.836 30.3384C918.558 29.2005 918.218 19.0127 918.099 15.4424C917.986 11.7104 917.366 6.5329 916.578 5.73471C916.174 7.38502 915.235 11.9531 914.912 13.0748C914.588 14.1966 913.127 19.5035 912.862 20.4204C907.496 19.4568 902.001 19.4568 896.634 20.4204C896.386 19.5197 894.925 14.229 894.601 13.1072C894.278 11.9854 893.339 7.41738 892.935 5.76707C892.153 6.54908 891.527 11.7265 891.414 15.4748C891.301 19.0721 890.961 29.2328 889.677 30.3708C886.921 32.8301 875.989 31.5573 870.909 30.7969C862.193 29.4647 855.533 28.9686 849.223 22.637C840.901 14.3314 839.515 1.00488 839.515 1.00488H709C709 1.00488 746.493 13.269 761.594 37.9968C770.525 52.6177 769.22 69.5415 766.944 78.3C800.684 76.5095 828.438 76.5095 856.234 86.5247C893.571 99.9699 901.105 127.615 904.773 137.005C908.424 127.615 915.964 99.9699 953.311 86.5247C981.108 76.5149 1008.86 76.4987 1042.6 78.3C1040.33 69.5415 1039.03 52.6177 1047.96 37.9968C1063.02 13.269 1100.55 1.00488 1100.55 1.00488H969.987Z" fill="#F2B862"/>
</svg>
